<mxfile host="app.diagrams.net" agent="Mozilla/5.0 (Windows NT 10.0; Win64; x64) AppleWebKit/537.36 (KHTML, like Gecko) Chrome/137.0.0.0 Safari/537.36" version="27.1.1">
  <diagram name="Trang-1" id="nhoYwCQT-kQtjQo7yAb7">
    <mxGraphModel dx="2605" dy="1318" grid="1" gridSize="10" guides="1" tooltips="1" connect="1" arrows="1" fold="1" page="1" pageScale="1" pageWidth="827" pageHeight="1169" math="0" shadow="0">
      <root>
        <mxCell id="0" />
        <mxCell id="1" parent="0" />
        <mxCell id="h4KQwVAW7nrFAsY51Ibk-1" value="FACEBOOK REGISTRATION SYSTEM" style="whiteSpace=wrap;strokeWidth=2;" vertex="1" parent="1">
          <mxGeometry x="20" y="124" width="2007" height="616" as="geometry" />
        </mxCell>
        <mxCell id="h4KQwVAW7nrFAsY51Ibk-2" value="UC-001: Enter Personal Information" style="whiteSpace=wrap;strokeWidth=2;" vertex="1" parent="1">
          <mxGeometry x="55" y="149" width="260" height="78" as="geometry" />
        </mxCell>
        <mxCell id="h4KQwVAW7nrFAsY51Ibk-3" value="UC-002: Select Date of Birth" style="whiteSpace=wrap;strokeWidth=2;" vertex="1" parent="1">
          <mxGeometry x="365" y="149" width="260" height="78" as="geometry" />
        </mxCell>
        <mxCell id="h4KQwVAW7nrFAsY51Ibk-4" value="UC-003: Select Gender" style="whiteSpace=wrap;strokeWidth=2;" vertex="1" parent="1">
          <mxGeometry x="675" y="161" width="223" height="54" as="geometry" />
        </mxCell>
        <mxCell id="h4KQwVAW7nrFAsY51Ibk-5" value="UC-004: Enter Contact Information" style="whiteSpace=wrap;strokeWidth=2;" vertex="1" parent="1">
          <mxGeometry x="948" y="149" width="260" height="78" as="geometry" />
        </mxCell>
        <mxCell id="h4KQwVAW7nrFAsY51Ibk-6" value="UC-005: Create Password" style="whiteSpace=wrap;strokeWidth=2;" vertex="1" parent="1">
          <mxGeometry x="1258" y="161" width="240" height="54" as="geometry" />
        </mxCell>
        <mxCell id="h4KQwVAW7nrFAsY51Ibk-7" value="UC-006: Accept Terms &amp; Policies" style="whiteSpace=wrap;strokeWidth=2;" vertex="1" parent="1">
          <mxGeometry x="1547" y="149" width="260" height="78" as="geometry" />
        </mxCell>
        <mxCell id="h4KQwVAW7nrFAsY51Ibk-8" value="UC-007: Submit Registration" style="whiteSpace=wrap;strokeWidth=2;" vertex="1" parent="1">
          <mxGeometry x="1422" y="637" width="260" height="78" as="geometry" />
        </mxCell>
        <mxCell id="h4KQwVAW7nrFAsY51Ibk-9" value="UC-008: Navigate to Login Page" style="whiteSpace=wrap;strokeWidth=2;" vertex="1" parent="1">
          <mxGeometry x="1732" y="637" width="260" height="78" as="geometry" />
        </mxCell>
        <mxCell id="h4KQwVAW7nrFAsY51Ibk-10" value="UC-009: Validate Input Data" style="whiteSpace=wrap;strokeWidth=2;" vertex="1" parent="1">
          <mxGeometry x="802" y="277" width="260" height="54" as="geometry" />
        </mxCell>
        <mxCell id="h4KQwVAW7nrFAsY51Ibk-11" value="UC-010: Store User Account" style="whiteSpace=wrap;strokeWidth=2;" vertex="1" parent="1">
          <mxGeometry x="56" y="521" width="258" height="54" as="geometry" />
        </mxCell>
        <mxCell id="h4KQwVAW7nrFAsY51Ibk-12" value="UC-011: Send Email Confirmation" style="whiteSpace=wrap;strokeWidth=2;" vertex="1" parent="1">
          <mxGeometry x="55" y="637" width="260" height="78" as="geometry" />
        </mxCell>
        <mxCell id="h4KQwVAW7nrFAsY51Ibk-13" value="UC-012: Display Validation Errors" style="whiteSpace=wrap;strokeWidth=2;" vertex="1" parent="1">
          <mxGeometry x="811" y="509" width="260" height="78" as="geometry" />
        </mxCell>
        <mxCell id="h4KQwVAW7nrFAsY51Ibk-14" value="UC-013: Check Account Uniqueness" style="whiteSpace=wrap;strokeWidth=2;" vertex="1" parent="1">
          <mxGeometry x="219" y="381" width="260" height="78" as="geometry" />
        </mxCell>
        <mxCell id="h4KQwVAW7nrFAsY51Ibk-15" value="NEW USER" style="whiteSpace=wrap;strokeWidth=2;" vertex="1" parent="1">
          <mxGeometry x="866" y="20" width="133" height="54" as="geometry" />
        </mxCell>
        <mxCell id="h4KQwVAW7nrFAsY51Ibk-16" value="EXISTING USER" style="whiteSpace=wrap;strokeWidth=2;" vertex="1" parent="1">
          <mxGeometry x="2062" y="521" width="165" height="54" as="geometry" />
        </mxCell>
        <mxCell id="h4KQwVAW7nrFAsY51Ibk-17" value="EMAIL SYSTEM" style="whiteSpace=wrap;strokeWidth=2;" vertex="1" parent="1">
          <mxGeometry x="105" y="790" width="160" height="54" as="geometry" />
        </mxCell>
        <mxCell id="h4KQwVAW7nrFAsY51Ibk-18" value="" style="curved=1;startArrow=none;endArrow=block;exitX=0;exitY=0.59;entryX=0.5;entryY=0;rounded=0;" edge="1" parent="1" source="h4KQwVAW7nrFAsY51Ibk-15" target="h4KQwVAW7nrFAsY51Ibk-2">
          <mxGeometry relative="1" as="geometry">
            <Array as="points">
              <mxPoint x="185" y="99" />
            </Array>
          </mxGeometry>
        </mxCell>
        <mxCell id="h4KQwVAW7nrFAsY51Ibk-19" value="" style="curved=1;startArrow=none;endArrow=block;exitX=0;exitY=0.65;entryX=0.5;entryY=0;rounded=0;" edge="1" parent="1" source="h4KQwVAW7nrFAsY51Ibk-15" target="h4KQwVAW7nrFAsY51Ibk-3">
          <mxGeometry relative="1" as="geometry">
            <Array as="points">
              <mxPoint x="495" y="99" />
            </Array>
          </mxGeometry>
        </mxCell>
        <mxCell id="h4KQwVAW7nrFAsY51Ibk-20" value="" style="curved=1;startArrow=none;endArrow=block;exitX=0;exitY=0.94;entryX=0.5;entryY=0;rounded=0;" edge="1" parent="1" source="h4KQwVAW7nrFAsY51Ibk-15" target="h4KQwVAW7nrFAsY51Ibk-4">
          <mxGeometry relative="1" as="geometry">
            <Array as="points">
              <mxPoint x="786" y="99" />
            </Array>
          </mxGeometry>
        </mxCell>
        <mxCell id="h4KQwVAW7nrFAsY51Ibk-21" value="" style="curved=1;startArrow=none;endArrow=block;exitX=1;exitY=0.94;entryX=0.5;entryY=0;rounded=0;" edge="1" parent="1" source="h4KQwVAW7nrFAsY51Ibk-15" target="h4KQwVAW7nrFAsY51Ibk-5">
          <mxGeometry relative="1" as="geometry">
            <Array as="points">
              <mxPoint x="1078" y="99" />
            </Array>
          </mxGeometry>
        </mxCell>
        <mxCell id="h4KQwVAW7nrFAsY51Ibk-22" value="" style="curved=1;startArrow=none;endArrow=block;exitX=1;exitY=0.64;entryX=0.5;entryY=0;rounded=0;" edge="1" parent="1" source="h4KQwVAW7nrFAsY51Ibk-15" target="h4KQwVAW7nrFAsY51Ibk-6">
          <mxGeometry relative="1" as="geometry">
            <Array as="points">
              <mxPoint x="1378" y="99" />
            </Array>
          </mxGeometry>
        </mxCell>
        <mxCell id="h4KQwVAW7nrFAsY51Ibk-23" value="" style="curved=1;startArrow=none;endArrow=block;exitX=1;exitY=0.59;entryX=0.5;entryY=0;rounded=0;" edge="1" parent="1" source="h4KQwVAW7nrFAsY51Ibk-15" target="h4KQwVAW7nrFAsY51Ibk-7">
          <mxGeometry relative="1" as="geometry">
            <Array as="points">
              <mxPoint x="1677" y="99" />
            </Array>
          </mxGeometry>
        </mxCell>
        <mxCell id="h4KQwVAW7nrFAsY51Ibk-24" value="" style="curved=1;startArrow=none;endArrow=block;exitX=1;exitY=0.57;entryX=1;entryY=0.13;rounded=0;" edge="1" parent="1" source="h4KQwVAW7nrFAsY51Ibk-15" target="h4KQwVAW7nrFAsY51Ibk-8">
          <mxGeometry relative="1" as="geometry">
            <Array as="points">
              <mxPoint x="1842" y="99" />
              <mxPoint x="1842" y="612" />
            </Array>
          </mxGeometry>
        </mxCell>
        <mxCell id="h4KQwVAW7nrFAsY51Ibk-25" value="" style="curved=1;startArrow=none;endArrow=block;exitX=0;exitY=0.85;entryX=0.5;entryY=0;rounded=0;" edge="1" parent="1" source="h4KQwVAW7nrFAsY51Ibk-16" target="h4KQwVAW7nrFAsY51Ibk-9">
          <mxGeometry relative="1" as="geometry">
            <Array as="points">
              <mxPoint x="1862" y="612" />
            </Array>
          </mxGeometry>
        </mxCell>
        <mxCell id="h4KQwVAW7nrFAsY51Ibk-26" value="" style="curved=1;dashed=1;dashPattern=2 3;startArrow=none;endArrow=block;exitX=0.5;exitY=1;entryX=0;entryY=0.33;rounded=0;" edge="1" parent="1" source="h4KQwVAW7nrFAsY51Ibk-2" target="h4KQwVAW7nrFAsY51Ibk-10">
          <mxGeometry relative="1" as="geometry">
            <Array as="points">
              <mxPoint x="185" y="252" />
            </Array>
          </mxGeometry>
        </mxCell>
        <mxCell id="h4KQwVAW7nrFAsY51Ibk-27" value="" style="curved=1;dashed=1;dashPattern=2 3;startArrow=none;endArrow=block;exitX=0.5;exitY=1;entryX=0;entryY=0.21;rounded=0;" edge="1" parent="1" source="h4KQwVAW7nrFAsY51Ibk-3" target="h4KQwVAW7nrFAsY51Ibk-10">
          <mxGeometry relative="1" as="geometry">
            <Array as="points">
              <mxPoint x="495" y="252" />
            </Array>
          </mxGeometry>
        </mxCell>
        <mxCell id="h4KQwVAW7nrFAsY51Ibk-28" value="" style="curved=1;dashed=1;dashPattern=2 3;startArrow=none;endArrow=block;exitX=0.5;exitY=1;entryX=0.21;entryY=0;rounded=0;" edge="1" parent="1" source="h4KQwVAW7nrFAsY51Ibk-4" target="h4KQwVAW7nrFAsY51Ibk-10">
          <mxGeometry relative="1" as="geometry">
            <Array as="points">
              <mxPoint x="786" y="252" />
            </Array>
          </mxGeometry>
        </mxCell>
        <mxCell id="h4KQwVAW7nrFAsY51Ibk-29" value="" style="curved=1;dashed=1;dashPattern=2 3;startArrow=none;endArrow=block;exitX=0.5;exitY=1;entryX=0.79;entryY=0;rounded=0;" edge="1" parent="1" source="h4KQwVAW7nrFAsY51Ibk-5" target="h4KQwVAW7nrFAsY51Ibk-10">
          <mxGeometry relative="1" as="geometry">
            <Array as="points">
              <mxPoint x="1078" y="252" />
            </Array>
          </mxGeometry>
        </mxCell>
        <mxCell id="h4KQwVAW7nrFAsY51Ibk-30" value="" style="curved=1;dashed=1;dashPattern=2 3;startArrow=none;endArrow=block;exitX=0.5;exitY=1;entryX=1;entryY=0.22;rounded=0;" edge="1" parent="1" source="h4KQwVAW7nrFAsY51Ibk-6" target="h4KQwVAW7nrFAsY51Ibk-10">
          <mxGeometry relative="1" as="geometry">
            <Array as="points">
              <mxPoint x="1378" y="252" />
            </Array>
          </mxGeometry>
        </mxCell>
        <mxCell id="h4KQwVAW7nrFAsY51Ibk-31" value="" style="curved=1;dashed=1;dashPattern=2 3;startArrow=none;endArrow=block;exitX=0.5;exitY=1;entryX=1;entryY=0.33;rounded=0;" edge="1" parent="1" source="h4KQwVAW7nrFAsY51Ibk-7" target="h4KQwVAW7nrFAsY51Ibk-10">
          <mxGeometry relative="1" as="geometry">
            <Array as="points">
              <mxPoint x="1677" y="252" />
            </Array>
          </mxGeometry>
        </mxCell>
        <mxCell id="h4KQwVAW7nrFAsY51Ibk-32" value="" style="curved=1;startArrow=none;endArrow=block;exitX=0.31;exitY=0;entryX=1;entryY=0.73;rounded=0;" edge="1" parent="1" source="h4KQwVAW7nrFAsY51Ibk-8" target="h4KQwVAW7nrFAsY51Ibk-10">
          <mxGeometry relative="1" as="geometry">
            <Array as="points">
              <mxPoint x="1470" y="612" />
              <mxPoint x="1470" y="356" />
            </Array>
          </mxGeometry>
        </mxCell>
        <mxCell id="h4KQwVAW7nrFAsY51Ibk-33" value="" style="curved=1;startArrow=none;endArrow=block;exitX=0;exitY=0.71;entryX=0.5;entryY=0;rounded=0;" edge="1" parent="1" source="h4KQwVAW7nrFAsY51Ibk-10" target="h4KQwVAW7nrFAsY51Ibk-14">
          <mxGeometry relative="1" as="geometry">
            <Array as="points">
              <mxPoint x="349" y="356" />
            </Array>
          </mxGeometry>
        </mxCell>
        <mxCell id="h4KQwVAW7nrFAsY51Ibk-34" value="" style="curved=1;startArrow=none;endArrow=block;exitX=0.12;exitY=1;entryX=0.5;entryY=0;rounded=0;" edge="1" parent="1" source="h4KQwVAW7nrFAsY51Ibk-14" target="h4KQwVAW7nrFAsY51Ibk-11">
          <mxGeometry relative="1" as="geometry">
            <Array as="points">
              <mxPoint x="185" y="484" />
            </Array>
          </mxGeometry>
        </mxCell>
        <mxCell id="h4KQwVAW7nrFAsY51Ibk-35" value="" style="curved=1;startArrow=none;endArrow=block;exitX=1;exitY=0.68;entryX=0.5;entryY=0;rounded=0;" edge="1" parent="1" source="h4KQwVAW7nrFAsY51Ibk-14" target="h4KQwVAW7nrFAsY51Ibk-13">
          <mxGeometry relative="1" as="geometry">
            <Array as="points">
              <mxPoint x="941" y="484" />
            </Array>
          </mxGeometry>
        </mxCell>
        <mxCell id="h4KQwVAW7nrFAsY51Ibk-36" value="" style="curved=1;startArrow=none;endArrow=block;exitX=0.5;exitY=1;entryX=0.5;entryY=0;rounded=0;" edge="1" parent="1" source="h4KQwVAW7nrFAsY51Ibk-11" target="h4KQwVAW7nrFAsY51Ibk-12">
          <mxGeometry relative="1" as="geometry">
            <Array as="points" />
          </mxGeometry>
        </mxCell>
        <mxCell id="h4KQwVAW7nrFAsY51Ibk-37" value="" style="curved=1;startArrow=none;endArrow=block;exitX=0.5;exitY=1;entryX=0.5;entryY=0;rounded=0;" edge="1" parent="1" source="h4KQwVAW7nrFAsY51Ibk-12" target="h4KQwVAW7nrFAsY51Ibk-17">
          <mxGeometry relative="1" as="geometry">
            <Array as="points" />
          </mxGeometry>
        </mxCell>
        <mxCell id="h4KQwVAW7nrFAsY51Ibk-38" value="" style="curved=1;dashed=1;dashPattern=2 3;startArrow=none;endArrow=block;exitX=0.5;exitY=1;entryX=0;entryY=0.33;rounded=0;" edge="1" parent="1" source="h4KQwVAW7nrFAsY51Ibk-13" target="h4KQwVAW7nrFAsY51Ibk-8">
          <mxGeometry relative="1" as="geometry">
            <Array as="points">
              <mxPoint x="941" y="612" />
            </Array>
          </mxGeometry>
        </mxCell>
      </root>
    </mxGraphModel>
  </diagram>
</mxfile>
